<svg width="100" height="59" viewBox="0 0 100 59" fill="none" xmlns="http://www.w3.org/2000/svg">
<path d="M92.5 25.8983C88.3594 25.8983 85 28.3182 85 31.3009V40.3051H15V31.3009C15 28.3182 11.6422 25.8983 7.5 25.8983C3.35781 25.8983 0 28.3182 0 31.3009V52.911C0 53.9015 1.11937 54.7119 2.5 54.7119H12.5C13.8806 54.7119 14.8594 53.9055 14.8594 52.911L15 51.1102H85V52.911C85 53.9055 86.1194 54.7119 87.5 54.7119H97.5C98.8806 54.7119 100 53.9055 100 52.911V31.3009C100 28.3182 96.6406 25.8983 92.5 25.8983ZM20 31.3009V36.7034H80V31.3009C80 26.9529 84.3016 23.3152 90 22.479V18.6949C90 10.7386 81.0453 4.28815 70 4.28815H29.8594C18.8141 4.28815 9.85938 10.7386 9.85938 18.6949L10 22.4767C15.7031 23.3209 20 26.9563 20 31.3009Z" fill="white"/>
</svg>
