<svg width="100" height="101" viewBox="0 0 100 101" fill="none" xmlns="http://www.w3.org/2000/svg">
<path d="M87.5 67.1666V33.8333C87.4985 32.372 87.1127 30.9367 86.3814 29.6715C85.6501 28.4063 84.5989 27.3557 83.3333 26.625L54.1667 9.95831C52.8998 9.22691 51.4628 8.84186 50 8.84186C48.5372 8.84186 47.1002 9.22691 45.8333 9.95831L16.6667 26.625C15.4011 27.3557 14.3499 28.4063 13.6186 29.6715C12.8873 30.9367 12.5015 32.372 12.5 33.8333V67.1666C12.5015 68.628 12.8873 70.0633 13.6186 71.3285C14.3499 72.5937 15.4011 73.6443 16.6667 74.375L45.8333 91.0416C47.1002 91.773 48.5372 92.1581 50 92.1581C51.4628 92.1581 52.8998 91.773 54.1667 91.0416L83.3333 74.375C84.5989 73.6443 85.6501 72.5937 86.3814 71.3285C87.1127 70.0633 87.4985 68.628 87.5 67.1666Z" stroke="white" stroke-width="3.83333" stroke-linecap="round" stroke-linejoin="round"/>
<path d="M13.625 29.5L50 50.5417L86.375 29.5" stroke="white
" stroke-width="3.83333" stroke-linecap="round" stroke-linejoin="round"/>
<path d="M50 92.5V50.5" stroke="white" stroke-width="3.83333" stroke-linecap="round" stroke-linejoin="round"/>
</svg>
