<svg width="100" height="101" viewBox="0 0 100 101" fill="none" xmlns="http://www.w3.org/2000/svg">
<path d="M49.9999 10.9167C33.3333 10.9167 16.6666 13 16.6666 27.5834V67.1667C16.6666 71.125 18.25 74.7084 20.8333 77.3334V85.9167C20.8333 88.2084 22.7083 90.0834 25 90.0834H29.1666C31.4583 90.0834 33.3333 88.2084 33.3333 85.9167V81.75H66.6666V85.9167C66.6666 88.2084 68.5416 90.0834 70.8333 90.0834H74.9999C77.2916 90.0834 79.1666 88.2084 79.1666 85.9167V77.3334C81.7499 74.7084 83.3333 71.125 83.3333 67.1667V27.5834C83.3333 13 68.4166 10.9167 49.9999 10.9167ZM49.9999 19.25C65.4583 19.25 71.3749 21.1667 73.6249 23.4167H26.7916C29.2916 21.25 35.3333 19.25 49.9999 19.25ZM74.9999 65.0834C74.9999 69.6667 71.2499 73.4167 66.6666 73.4167H33.3333C28.75 73.4167 25 69.6667 25 65.0834V52.5834H74.9999V65.0834ZM74.9999 44.25H25V31.75H74.9999V44.25Z" fill="white
"/>
<path d="M35.4166 69.25C37.0742 69.25 38.6639 68.5915 39.836 67.4194C41.0081 66.2473 41.6666 64.6576 41.6666 63C41.6666 61.3424 41.0081 59.7527 39.836 58.5806C38.6639 57.4085 37.0742 56.75 35.4166 56.75C33.759 56.75 32.1693 57.4085 30.9972 58.5806C29.8251 59.7527 29.1666 61.3424 29.1666 63C29.1666 64.6576 29.8251 66.2473 30.9972 67.4194C32.1693 68.5915 33.759 69.25 35.4166 69.25Z" fill="white
"/>
<path d="M64.5834 69.25C66.241 69.25 67.8307 68.5915 69.0028 67.4194C70.1749 66.2473 70.8334 64.6576 70.8334 63C70.8334 61.3424 70.1749 59.7527 69.0028 58.5806C67.8307 57.4085 66.241 56.75 64.5834 56.75C62.9258 56.75 61.3361 57.4085 60.164 58.5806C58.9919 59.7527 58.3334 61.3424 58.3334 63C58.3334 64.6576 58.9919 66.2473 60.164 67.4194C61.3361 68.5915 62.9258 69.25 64.5834 69.25Z" fill="white
"/>
</svg>
