<svg width="96" height="101" viewBox="0 0 96 101" fill="none" xmlns="http://www.w3.org/2000/svg">
<path d="M79.9488 25.5H63.9744V17.1666C63.9744 12.5833 60.3801 8.83331 55.9872 8.83331H40.0127C35.6198 8.83331 32.0255 12.5833 32.0255 17.1666V25.5H16.0511C11.6581 25.5 8.06384 29.25 8.06384 33.8333V83.8333C8.06384 88.4166 11.6581 92.1666 16.0511 92.1666H79.9488C84.3418 92.1666 87.936 88.4166 87.936 83.8333V33.8333C87.936 29.25 84.3418 25.5 79.9488 25.5ZM40.0127 17.1666H55.9872V25.5H40.0127V17.1666ZM79.9488 83.8333H16.0511V33.8333H79.9488V83.8333Z" fill="black"/>
<path d="M51.9936 42.1667H44.0063V54.6667H32.0255V63H44.0063V75.5H51.9936V63H63.9744V54.6667H51.9936V42.1667Z" fill="black"/>
</svg>
