<svg width="100" height="116" viewBox="0 0 100 116" fill="none" xmlns="http://www.w3.org/2000/svg">
<g clip-path="url(#clip0_92_84)">
<path d="M49.4642 34.0491C50.1561 36.8616 50.1785 39.808 49.5758 42.6428C48.9508 45.2991 47.6785 48.1562 45.8927 50.433C42.6561 54.1161 38.616 56.4598 33.7276 57.5759V106.214C33.7276 108.58 32.991 110.857 31.3169 112.531C29.6427 114.205 27.366 115.143 24.799 115.143C22.6338 115.143 20.3615 114.205 18.6852 112.531C17.011 110.857 15.8704 108.58 15.8704 106.214V57.5759C11.3749 56.683 7.13382 54.183 4.08471 50.5C2.27444 48.2232 1.01082 45.5669 0.391627 42.7098C-0.227569 39.8527 -0.185717 36.9062 0.513949 34.0714L7.25658 3.63613C7.44632 2.77631 7.94855 2.01716 8.66507 1.50444C9.37935 0.991491 10.261 0.761201 11.136 0.857696C12.0133 0.953143 12.8258 1.37118 13.4151 2.031C14.0044 2.6906 14.3258 3.54462 14.3213 4.42854V36.5714H18.1985L22.0133 3.5156C22.1026 2.78457 22.4552 2.1118 23.0133 1.62363C23.549 1.13569 24.2633 0.866067 24.799 0.866067C25.7365 0.866067 26.4508 1.13569 26.9865 1.62363C27.5445 2.1118 27.7008 2.78457 27.991 3.5156L31.8079 36.5714H35.5133V4.42854C35.5133 3.55131 36.0267 2.70265 36.4061 2.04395C37.1874 1.38524 37.991 0.962919 38.8615 0.857696C39.732 0.761982 40.424 0.995286 41.3392 1.51247C42.0535 2.02966 42.5445 2.79395 42.7454 3.65846L49.4642 34.0491ZM99.9999 106.214C99.9999 108.58 99.0624 110.857 97.3883 112.531C95.7142 114.205 93.4374 115.143 91.0713 115.143C88.7053 115.143 86.4285 114.205 84.7544 112.531C83.0803 110.857 82.1428 108.58 82.1428 106.214V79.4286H78.3928C76.5178 79.4286 74.6428 79.0491 72.9017 78.3348C71.1829 77.5982 69.5981 76.5491 68.2588 75.2098C66.9419 73.8705 65.8928 72.2857 64.9776 70.5446C64.4642 68.8036 64.107 66.9286 64.107 65.0536L64.0847 39.6518C64.2856 31.4152 66.7633 23.3571 71.3838 16.5446C76.0044 9.72096 82.5445 4.43971 90.2008 1.37921C91.0937 0.946625 92.4553 0.785643 93.616 0.910486C94.7767 1.03529 95.8928 1.44194 96.8526 2.09506C97.8124 2.74819 98.616 3.62721 99.1517 4.65846C99.7097 5.68747 99.799 6.83479 99.9999 7.99997V106.214Z" fill="black"/>
</g>
<defs>
<clipPath id="clip0_92_84">
<rect width="100" height="114.286" fill="white" transform="translate(0 0.857117)"/>
</clipPath>
</defs>
</svg>
