<svg width="100" height="101" viewBox="0 0 100 101" fill="none" xmlns="http://www.w3.org/2000/svg">
<path d="M83.3334 50.5V92.1667H16.6667V50.5" stroke="black" stroke-width="3.83333" stroke-linecap="round" stroke-linejoin="round"/>
<path d="M8.33325 29.6666H91.6666V50.5H8.33325V29.6666Z" stroke="black" stroke-width="3.83333" stroke-linecap="round" stroke-linejoin="round"/>
<path d="M50 92.1666V29.6666" stroke="black" stroke-width="3.83333" stroke-linecap="round" stroke-linejoin="round"/>
<path d="M49.9999 29.6667H31.2499C28.4872 29.6667 25.8377 28.5692 23.8842 26.6157C21.9307 24.6622 20.8333 22.0127 20.8333 19.25C20.8333 16.4874 21.9307 13.8378 23.8842 11.8843C25.8377 9.93084 28.4872 8.83337 31.2499 8.83337C45.8333 8.83337 49.9999 29.6667 49.9999 29.6667Z" stroke="black" stroke-width="3.83333" stroke-linecap="round" stroke-linejoin="round"/>
<path d="M50 29.6667H68.75C71.5127 29.6667 74.1622 28.5692 76.1157 26.6157C78.0692 24.6622 79.1667 22.0127 79.1667 19.25C79.1667 16.4874 78.0692 13.8378 76.1157 11.8843C74.1622 9.93084 71.5127 8.83337 68.75 8.83337C54.1667 8.83337 50 29.6667 50 29.6667Z" stroke="black" stroke-width="3.83333" stroke-linecap="round" stroke-linejoin="round"/>
</svg>
